<svg xmlns="http://www.w3.org/2000/svg" version="1.1" x="0" y="0" width="231.08" height="36.5" viewBox="0 0 231.08 36.5" enable-background="new 0 0 231.082 36.504" xml:space="preserve"><style>.style0{fill:	#292B6A;}.style1{fill:	#F06625;}</style><path d="M0 8.46h5.15v2.36c0.88-0.97 1.86-1.69 2.94-2.17 1.08-0.48 2.25-0.72 3.52-0.72 1.28 0 2.4 0.3 3.5 0.94 1.03 0.6 1.9 1.5 2.5 2.76 0.82-1.21 1.82-2.13 3.01-2.76 1.19-0.63 2.49-0.94 3.9-0.94 1.46 0 2.7 0.3 3.9 1.02s1.91 1.6 2.4 2.66 0.73 2.9 0.7 5.34v12.04h-5.19V18.57c0-2.33-0.29-3.9-0.87-4.73 -0.58-0.82-1.45-1.24-2.6-1.24 -0.88 0-1.67 0.25-2.37 0.8 -0.7 0.5-1.22 1.2-1.56 2.09 -0.34 0.89-0.51 2.31-0.51 4.27v9.27h-5.19v-9.95c0-1.84-0.14-3.17-0.41-3.99 -0.27-0.82-0.68-1.44-1.22-1.84 -0.54-0.4-1.2-0.6-1.97-0.6 -0.86 0-1.64 0.25-2.34 0.8s-1.22 1.22-1.57 2.14c-0.35 0.92-0.52 2.37-0.52 4.34v9.14H0V8.46z" class="style0"/><path d="M51.53 8.46h5.15v20.54h-5.15V26.82c-1.01 0.96-2.01 1.65-3.03 2.1 -1.01 0.42-2.11 0.63-3.29 0.63 -2.65 0-4.95-1.03-6.88-3.09 -1.94-2.06-2.9-4.61-2.9-7.67 0-3.17 0.94-5.77 2.81-7.79s4.15-3.04 6.83-3.04c1.23 0 2.4 0.2 3.5 0.7 1.08 0.5 2.1 1.2 3 2.1V8.46zM46.11 12.68c-1.59 0-2.92 0.56-3.97 1.69 -1.05 1.13-1.58 2.57-1.58 4.33 0 1.8 0.5 3.2 1.6 4.4 1.07 1.1 2.4 1.7 4 1.72 1.62 0 2.96-0.56 4.03-1.69 1.07-1.13 1.6-2.6 1.6-4.43 0-1.79-0.53-3.23-1.6-4.34S47.74 12.7 46.1 12.68z" class="style0"/><path d="M61.32 0.53h5.15v28.46h-5.15V0.53z" class="style0"/><path d="M86.31 8.46h5.15v20.54h-5.15V26.82c-1.01 0.96-2.01 1.65-3.03 2.1 -1.01 0.42-2.11 0.63-3.29 0.63 -2.65 0-4.94-1.03-6.88-3.09 -1.94-2.06-2.9-4.61-2.9-7.67 0-3.17 0.94-5.77 2.81-7.79s4.15-3.04 6.83-3.04c1.23 0 2.4 0.2 3.5 0.7 1.08 0.5 2.1 1.2 3 2.1V8.46zM80.9 12.68c-1.59 0-2.92 0.56-3.97 1.69 -1.05 1.13-1.58 2.57-1.58 4.33 0 1.8 0.5 3.2 1.6 4.4 1.07 1.1 2.4 1.7 4 1.72 1.62 0 2.96-0.56 4.03-1.69 1.07-1.13 1.6-2.6 1.6-4.43 0-1.79-0.53-3.23-1.6-4.34S82.53 12.7 80.9 12.68z" class="style0"/><path d="M94.4 8.46h5.27l5.33 12.89 5.89-12.89h5.28l-12.86 28.05h-5.32l4.22-9.04L94.4 8.46z" class="style0"/><path d="M131.67 11.32l-3.19 3.19c-1.3-1.28-2.47-1.92-3.53-1.92 -0.58 0-1.03 0.12-1.36 0.4 -0.33 0.25-0.49 0.55-0.49 0.92 0 0.3 0.1 0.5 0.3 0.76 0.21 0.2 0.7 0.6 1.5 0.95l1.89 0.9c1.99 1 3.4 2 4.1 3 0.74 1 1.1 2.2 1.1 3.59 0 1.83-0.67 3.35-2.01 4.6 -1.34 1.22-3.14 1.83-5.39 1.83 -2.99 0-5.39-1.17-7.17-3.51l3.17-3.45c0.6 0.7 1.3 1.3 2.1 1.7 0.81 0.4 1.5 0.7 2.2 0.65 0.68 0 1.23-0.16 1.64-0.49 0.42-0.33 0.62-0.7 0.62-1.13 0-0.79-0.75-1.57-2.25-2.32l-1.74-0.87c-3.32-1.67-4.98-3.77-4.98-6.28 0-1.62 0.63-3.01 1.88-4.16 1.25-1.15 2.85-1.73 4.8-1.73 1.33 0 2.6 0.3 3.8 0.88C129.85 9.4 130.9 10.2 131.7 11.32z" class="style0"/><path d="M138.12 0c0.9 0 1.7 0.3 2.3 0.98 0.65 0.7 1 1.4 1 2.4 0 0.92-0.32 1.7-0.96 2.35 -0.64 0.65-1.4 0.97-2.3 0.97 -0.91 0-1.7-0.33-2.34-0.99 -0.65-0.66-0.97-1.46-0.97-2.41 0-0.9 0.32-1.68 0.96-2.32C136.44 0.3 137.2 0 138.1 0zM135.54 8.46h5.15v20.54h-5.15V8.46z" class="style0"/><path d="M160.53 8.46h5.15v20.54h-5.15V26.82c-1.01 0.96-2.01 1.65-3.03 2.1 -1.01 0.42-2.11 0.63-3.29 0.63 -2.65 0-4.95-1.03-6.88-3.09 -1.94-2.06-2.9-4.61-2.9-7.67 0-3.17 0.94-5.77 2.81-7.79s4.15-3.04 6.83-3.04c1.23 0 2.4 0.2 3.5 0.7 1.08 0.5 2.1 1.2 3 2.1V8.46zM155.11 12.68c-1.59 0-2.92 0.56-3.97 1.69 -1.05 1.13-1.58 2.57-1.58 4.33 0 1.8 0.5 3.2 1.6 4.4 1.07 1.1 2.4 1.7 4 1.72 1.62 0 2.96-0.56 4.03-1.69 1.07-1.13 1.6-2.6 1.6-4.43 0-1.79-0.53-3.23-1.6-4.34C158.09 13.2 156.7 12.7 155.1 12.68z" class="style0"/><path d="M170.93 0.53h5.15v16.39l7.59-8.47h6.47l-8.85 9.84 9.9 10.69h-6.4l-8.72-9.46v9.46h-5.15V0.53z" class="style1"/><path d="M195.33 0c0.9 0 1.7 0.3 2.3 0.98 0.65 0.7 1 1.4 1 2.4 0 0.92-0.32 1.7-0.96 2.35 -0.64 0.65-1.4 0.97-2.29 0.97 -0.92 0-1.7-0.33-2.35-0.99s-0.97-1.46-0.97-2.41c0-0.9 0.32-1.68 0.96-2.32C193.65 0.3 194.4 0 195.3 0zM192.75 8.46h5.15v20.54h-5.15V8.46z" class="style1"/><path d="M202.58 8.46h5.15v2.11c1.17-0.99 2.23-1.67 3.18-2.06 0.95-0.38 1.92-0.58 2.91-0.58 2.04 0 3.8 0.7 5.2 2.13 1.19 1.2 1.8 3 1.8 5.36v13.57h-5.1v-8.99c0-2.45-0.11-4.08-0.33-4.88 -0.22-0.8-0.6-1.42-1.15-1.84 -0.55-0.42-1.22-0.63-2.02-0.63 -1.04 0-1.94 0.35-2.68 1 -0.75 0.7-1.26 1.66-1.55 2.9 -0.15 0.64-0.23 2.03-0.23 4.17v8.24h-5.15V8.46z" class="style1"/><path d="M227.79 0c0.9 0 1.7 0.3 2.3 0.98 0.65 0.7 1 1.4 1 2.4 0 0.92-0.32 1.7-0.96 2.35s-1.4 0.97-2.3 0.97c-0.91 0-1.7-0.33-2.34-0.99 -0.64-0.66-0.97-1.46-0.97-2.41 0-0.9 0.32-1.68 0.96-2.32C226.11 0.3 226.9 0 227.8 0zM225.21 8.46h5.15v20.54h-5.15V8.46z" class="style1"/></svg>